<svg width="412" height="118" viewBox="0 0 412 118" fill="none" xmlns="http://www.w3.org/2000/svg">
<path d="M71.7345 28.6844C68.0179 26.1352 63.7772 24.2293 59.0124 23.0143C54.2476 21.7992 49.2445 21.1798 44.0508 21.1798C36.5701 21.1798 30.0184 22.2995 24.3483 24.5628C18.6781 26.8261 14.0562 30.0186 10.4826 34.1878C6.909 38.357 4.50276 43.2648 3.28773 48.9588L27.2786 50.9123C28.1601 47.8152 29.9946 45.266 32.7582 43.2171C35.5218 41.1683 39.2384 40.1438 43.9079 40.1438C48.3392 40.1438 51.746 41.1921 54.1761 43.3124C56.5823 45.4328 57.7974 48.4108 57.7974 52.2703V52.6277C57.7974 54.6289 57.035 56.1298 55.5341 57.1304C54.0331 58.1549 51.6031 58.9172 48.2915 59.4175C44.9562 59.9179 40.5725 60.4658 35.1406 61.0376C30.5187 61.4902 26.0874 62.2526 21.8944 63.3485C17.7013 64.4444 13.9371 66.0645 10.6494 68.2325C7.36166 70.3767 4.76483 73.2356 2.8589 76.7615C0.952966 80.2875 0 84.6473 0 89.841C0 96.0114 1.35798 101.157 4.0501 105.279C6.74223 109.401 10.435 112.498 15.1045 114.594C19.774 116.691 25.0868 117.739 31.0667 117.739C35.6886 117.739 39.7863 117.12 43.3123 115.881C46.8383 114.642 49.8639 112.927 52.3893 110.711C54.9146 108.495 56.9159 105.922 58.4168 103.016H59.1553V116H83.7657V52.8659C83.7657 47.3149 82.6936 42.5262 80.5256 38.5238C78.3576 34.5213 75.4511 31.2574 71.7345 28.6844ZM57.988 82.527C57.988 85.8147 57.1541 88.7689 55.4864 91.3657C53.8187 93.9625 51.5316 96.0353 48.6012 97.56C45.6709 99.0847 42.3117 99.8471 38.4998 99.8471C34.5212 99.8471 31.2334 98.918 28.6604 97.0835C26.0874 95.2252 24.8009 92.5569 24.8009 89.0071C24.8009 86.5771 25.4204 84.5282 26.683 82.8843C27.9457 81.2405 29.7087 79.9301 31.972 78.9533C34.2353 77.9766 36.9036 77.2618 39.9531 76.8092C41.3825 76.6186 42.9549 76.3803 44.6941 76.1183C46.4333 75.8562 48.1962 75.5465 49.9354 75.213C51.6746 74.8556 53.247 74.4744 54.6526 74.0456C56.0582 73.6167 57.1541 73.1403 57.9641 72.6161V82.527H57.988Z" fill="white"/>
<path d="M124.481 44.6704C127.46 42.5024 130.962 41.4065 134.988 41.4065C139.729 41.4065 143.588 42.836 146.543 45.6949C149.497 48.5538 151.307 52.318 151.998 56.9875H176.49C176.132 49.7688 174.155 43.4554 170.581 38.095C167.008 32.7345 162.147 28.5653 156.025 25.6111C149.902 22.6569 142.755 21.156 134.583 21.156C125.125 21.156 116.953 23.2049 110.092 27.2788C103.23 31.3527 97.9414 37.0229 94.2248 44.2654C90.5083 51.508 88.65 59.9417 88.65 69.519C88.65 78.9772 90.4844 87.3395 94.1534 94.6058C97.8223 101.872 103.111 107.542 109.996 111.64C116.882 115.714 125.101 117.763 134.702 117.763C143.017 117.763 150.235 116.238 156.334 113.189C162.433 110.139 167.198 105.898 170.676 100.49C174.155 95.0585 176.085 88.7927 176.49 81.6455H151.998C151.522 84.9332 150.497 87.7445 148.925 90.0792C147.353 92.414 145.399 94.2008 143.017 95.4158C140.634 96.6309 137.966 97.2503 135.012 97.2503C130.985 97.2503 127.483 96.1544 124.481 93.9626C121.48 91.7707 119.145 88.5783 117.501 84.4091C115.857 80.216 115.023 75.1415 115.023 69.1855C115.023 63.3009 115.857 58.274 117.525 54.1286C119.193 50.007 121.503 46.8623 124.481 44.6704Z" fill="white"/>
<path d="M229.189 96.0351C227.974 96.2495 226.759 96.3687 225.544 96.3687C223.805 96.3687 222.256 96.1066 220.946 95.5825C219.635 95.0583 218.611 94.1292 217.872 92.8188C217.134 91.5085 216.777 89.6502 216.777 87.244V41.9067H234.383V22.4185H216.777V0H190.808V22.4185H178.015V41.9067H190.808V90.627C190.761 96.7498 192.047 101.824 194.644 105.851C197.241 109.877 200.886 112.831 205.579 114.737C210.273 116.643 215.752 117.477 221.994 117.239C225.353 117.119 228.236 116.786 230.571 116.238C232.929 115.69 234.764 115.214 236.05 114.809L231.976 95.511C231.333 95.6301 230.404 95.7969 229.189 96.0351Z" fill="white"/>
<path d="M300.279 76.1423C300.327 80.3354 299.493 83.8376 297.802 86.6726C296.11 89.5077 293.918 91.6519 291.202 93.1051C288.486 94.5584 285.556 95.2731 282.435 95.2731C277.527 95.2731 273.596 93.6769 270.69 90.4607C267.759 87.2444 266.282 82.8846 266.235 77.3574V22.4189H240.29V82.0031C240.338 89.3171 241.672 95.5828 244.34 100.824C247.009 106.065 250.701 110.116 255.466 112.951C260.207 115.786 265.711 117.215 271.976 117.215C279.004 117.215 284.96 115.547 289.844 112.212C294.728 108.877 298.231 104.469 300.351 98.9897H301.328V115.976H326.248V22.4189H300.303V76.1423H300.279Z" fill="white"/>
<path d="M340.756 102.205C338.755 102.205 337.016 102.92 335.587 104.349C334.157 105.779 333.442 107.47 333.442 109.472C333.442 111.473 334.157 113.212 335.587 114.642C337.016 116.071 338.731 116.786 340.756 116.786C342.067 116.786 343.282 116.452 344.378 115.785C345.474 115.118 346.355 114.237 347.046 113.141C347.737 112.045 348.07 110.806 348.07 109.472C348.07 107.494 347.332 105.779 345.879 104.349C344.425 102.92 342.71 102.205 340.756 102.205Z" fill="white"/>
<path d="M371.37 62.3715C372.132 61.49 373.443 61.0374 375.349 61.0374C376.111 61.0374 376.873 61.1088 377.612 61.2518C378.351 61.3947 378.97 61.5377 379.494 61.7044L381.805 51.9604C380.995 51.7221 379.756 51.4362 378.112 51.1265C376.468 50.8168 374.634 50.6739 372.657 50.6739C369.702 50.6739 367.082 51.2218 364.771 52.3415C362.46 53.4613 360.625 55.129 359.315 57.3684C358.005 59.6079 357.314 62.4192 357.314 65.8022V69.1852H350.715V78.9293H357.314V115.976H370.25V78.9531H379.566V69.209H370.25V66.0642C370.25 64.468 370.632 63.253 371.37 62.3715Z" fill="white"/>
<path d="M409.609 68.6373C408.846 68.5658 408.156 68.5182 407.512 68.5182C404.892 68.5182 402.581 69.2567 400.579 70.7576C398.578 72.2585 397.149 74.4504 396.291 77.3569H395.815V69.1852H383.235V115.976H396.22V89.5072C396.22 87.6013 396.648 85.9098 397.506 84.4565C398.364 83.0032 399.555 81.8597 401.032 81.0258C402.509 80.192 404.225 79.787 406.13 79.787C407.036 79.787 408.013 79.8585 409.085 80.0014C410.157 80.1443 411.014 80.3111 411.61 80.4779V68.9708C411.014 68.8517 410.347 68.7326 409.609 68.6373Z" fill="white"/>
</svg>
