<svg xmlns="http://www.w3.org/2000/svg" width="227.187" height="42.759" viewBox="0 0 227.187 42.759">
  <path d="M24.875,0C39.381,0,44.391,5.01,44.391,19.516v3.728c0,14.506-5.01,19.515-19.516,19.515H19.516C5.01,42.759,0,37.75,0,23.244V19.516C0,5.01,5.01,0,19.516,0ZM20.39,12c-6.408,0-7.806,1.457-7.806,7.806v3.146c0,6.408,1.4,7.806,7.806,7.806H24c6.408,0,7.806-1.4,7.806-7.806V19.807c0-6.35-1.4-7.806-7.806-7.806Z" fill="currentColor"/>
  <path d="M250.676,4.349V15.534l-19.516,17.71h19.516V45.128H211.82V34l19.574-17.768H211.82V4.349Z" transform="translate(-163.586 -3.359)" fill="currentColor"/>
  <path d="M443.816,4.349V15.534L424.3,33.244h19.515V45.128H404.96V34l19.574-17.768H404.96V4.349Z" transform="translate(-312.746 -3.359)" fill="currentColor"/>
  <path d="M620.552,45.128,617.93,38.37H601.153l-2.621,6.758H585.307L601.794,4.349h15.612l16.486,40.779ZM605.7,26.486h7.69l-3.845-9.962Z" transform="translate(-452.025 -3.359)" fill="currentColor"/>
  <path d="M839.378,42.757l-7.573-15.845-8.8,4.893V42.757H810.425V1.978h12.584V18.057L852.544,1.279V15.435l-9.554,5.3,10.078,22.02Z" transform="translate(-625.881 -0.988)" fill="currentColor"/>
</svg>
