<?xml version="1.0" encoding="utf-8"?>
<!-- Generator: Adobe Illustrator 16.0.0, SVG Export Plug-In . SVG Version: 6.00 Build 0)  -->
<!DOCTYPE svg PUBLIC "-//W3C//DTD SVG 1.1//EN" "http://www.w3.org/Graphics/SVG/1.1/DTD/svg11.dtd">
<svg version="1.1" id="Calque_1" xmlns="http://www.w3.org/2000/svg" xmlns:xlink="http://www.w3.org/1999/xlink" x="0px" y="0px"
	 width="23.26px" height="32.699px" viewBox="0 0 23.26 32.699" enable-background="new 0 0 23.26 32.699" xml:space="preserve">
<g id="Groupe_259" transform="translate(-4840 5756)">
	<g id="noun_Pin_2693065" transform="translate(0)">
		<g id="Groupe_258">
			<path id="Tracé_101" fill="#533FF5" d="M4851.63-5756c6.423,0.001,11.629,5.207,11.63,11.63c0,6.424-6.942,14.843-11.022,20.743
				c-0.223,0.336-0.675,0.428-1.011,0.205c-0.081-0.054-0.151-0.124-0.205-0.205c-3.992-5.9-11.022-14.319-11.022-20.743
				C4840-5750.793,4845.207-5755.999,4851.63-5756z M4851.63-5749.924c3.093-0.025,5.621,2.461,5.646,5.554
				c0.025,3.093-2.461,5.621-5.554,5.646c-3.093,0.024-5.621-2.462-5.646-5.555c0-0.03,0-0.061,0-0.092
				C4846.107-5747.424,4848.576-5749.893,4851.63-5749.924z"/>
		</g>
	</g>
	<ellipse id="Ellipse_32" fill="#533FF5" cx="4852.5" cy="-5744.051" rx="6.5" ry="7"/>
</g>
<g transform="translate(0.000000,700.000000) scale(0.100000,-0.100000)">
	<path fill="#FFFFFF" d="M137.979,6944.125c-0.791-0.454-2.998-1.738-4.922-2.842c-1.895-1.104-4.346-2.524-5.459-3.14
		c-1.084-0.64-2.217-1.284-2.49-1.436c-0.918-0.532-2.158-1.24-2.393-1.392c-0.264-0.151-5.215-3.008-5.659-3.267
		c-0.532-0.283-3.765-2.153-4.004-2.31c-0.122-0.088-0.557-0.327-0.977-0.557c-0.415-0.21-0.864-0.469-0.986-0.576
		c-0.122-0.088-0.361-0.239-0.532-0.332c-0.317-0.166-5.508-3.174-16.538-9.531c-3.442-1.992-6.567-3.789-6.943-3.999
		c-0.381-0.215-2.588-1.494-4.912-2.842c-5.894-3.413-11.211-6.479-16.118-9.302l-4.18-2.402l-0.02-8.687v-8.706l14.199,0.02
		c7.808,0,14.199-0.044,14.199-0.103c0-0.049-0.259-0.322-0.576-0.61c-0.542-0.449-5.962-5.356-7.354-6.626
		c-0.332-0.303-0.82-0.757-1.074-0.986c-0.259-0.239-1.074-0.981-1.802-1.646c-0.737-0.664-1.489-1.343-1.67-1.509
		c-0.186-0.166-0.889-0.815-1.587-1.431c-1.538-1.396-1.89-1.709-2.554-2.314c-0.288-0.273-1.24-1.138-2.114-1.919
		c-0.859-0.786-1.768-1.602-1.978-1.812c-0.229-0.21-0.894-0.815-1.499-1.357c-0.601-0.547-1.284-1.152-1.509-1.362
		c-0.229-0.21-0.771-0.708-1.221-1.118c-0.454-0.396-1.406-1.27-2.129-1.934l-1.333-1.211v-8.11v-8.11h52.861h52.881v8.652v8.657
		H153.35h-14.238l0.684,0.649c0.381,0.347,1.289,1.177,2.041,1.846c0.732,0.664,1.709,1.553,2.178,1.973
		c2.91,2.646,2.891,2.646,5.137,4.688c0.547,0.483,1.66,1.509,2.48,2.256c0.83,0.747,1.631,1.475,1.816,1.626
		c0.176,0.156,0.908,0.83,1.65,1.509c0.752,0.679,1.494,1.362,1.66,1.514c0.342,0.283,2.451,2.202,3.066,2.749
		c0.176,0.181,0.957,0.889,1.748,1.582c0.771,0.713,1.816,1.665,2.295,2.119c0.498,0.454,0.977,0.903,1.064,0.981
		c0.117,0.088,0.742,0.645,1.406,1.265l1.25,1.118l-0.029,8.174l-0.059,8.154h-35.449c-19.497,0-35.449,0.02-35.42,0.034
		c0.049,0.044,4.819,2.808,8.262,4.79c1.45,0.83,2.813,1.616,3.027,1.753c0.205,0.132,0.513,0.317,0.674,0.386
		c0.166,0.093,1.826,1.06,3.701,2.134c4.434,2.568,14.268,8.242,14.961,8.638c0.283,0.151,1.777,1.03,3.32,1.919
		c1.543,0.894,3.066,1.768,3.389,1.963c1.924,1.06,6.875,3.931,7.217,4.17c0.225,0.166,0.43,0.288,0.469,0.288
		c0.049,0,1.006,0.542,2.158,1.221c1.162,0.664,2.363,1.377,2.705,1.572c1.27,0.713,1.729,1.016,1.729,1.118
		c0,0.044-0.156,0.347-0.381,0.649c-0.205,0.303-0.371,0.591-0.371,0.62s-0.332,0.635-0.742,1.328
		c-2.031,3.535-4.18,7.236-4.521,7.856c-1.982,3.462-2.539,4.365-2.676,4.365C139.482,6944.965,138.77,6944.589,137.979,6944.125z
		 M139.248,6882.768c0.098-0.015-0.02-0.171-0.225-0.366c-0.391-0.332-2.842-2.554-3.633-3.276
		c-0.596-0.557-2.705-2.446-3.311-2.988c-0.303-0.254-0.85-0.757-1.23-1.123c-0.381-0.356-1.25-1.162-1.953-1.777
		c-0.684-0.62-1.357-1.24-1.494-1.362s-0.84-0.767-1.592-1.431c-0.732-0.669-1.484-1.348-1.66-1.514s-0.889-0.815-1.572-1.431
		c-0.703-0.62-1.494-1.333-1.768-1.592c-0.259-0.239-1.03-0.967-1.733-1.582c-1.44-1.289-2.432-2.197-4.59-4.17
		c-0.83-0.757-1.719-1.558-1.978-1.782l-0.488-0.396H101.04c-10.508,0-10.977,0.02-10.688,0.273c0.161,0.137,0.933,0.83,1.704,1.538
		s1.514,1.392,1.66,1.514c0.483,0.41,2.764,2.476,3.081,2.793c0.181,0.166,1.348,1.226,2.588,2.329
		c1.25,1.118,2.563,2.324,2.939,2.671s0.85,0.786,1.064,0.967c0.313,0.273,1.328,1.191,3.169,2.866
		c2.251,2.056,3.11,2.822,3.34,3.037c0.342,0.308,2.837,2.573,3.066,2.783c0.088,0.093,0.84,0.771,1.675,1.509
		c0.825,0.737,1.543,1.392,1.577,1.436c0.054,0.044,0.361,0.317,0.688,0.605l0.596,0.527l10.811-0.02
		C134.238,6882.797,139.18,6882.783,139.248,6882.768z"/>
</g>
</svg>
